<?xml version="1.0" encoding="UTF-8"?>
<!DOCTYPE svg PUBLIC "-//W3C//DTD SVG 1.1//EN" "http://www.w3.org/Graphics/SVG/1.1/DTD/svg11.dtd">
<svg xmlns="http://www.w3.org/2000/svg" version="1.1" width="290px" height="92px" style="shape-rendering:geometricPrecision; text-rendering:geometricPrecision; image-rendering:optimizeQuality; fill-rule:evenodd; clip-rule:evenodd" xmlns:xlink="http://www.w3.org/1999/xlink">
<g><path style="opacity:1" fill="#233656" d="M 195.5,18.5 C 203.414,17.5328 211.414,17.1995 219.5,17.5C 219.5,20.8333 219.5,24.1667 219.5,27.5C 217.833,27.5 216.167,27.5 214.5,27.5C 214.5,39.1667 214.5,50.8333 214.5,62.5C 216.167,62.5 217.833,62.5 219.5,62.5C 219.5,65.8333 219.5,69.1667 219.5,72.5C 212.833,72.5 206.167,72.5 199.5,72.5C 199.5,69.1667 199.5,65.8333 199.5,62.5C 200.5,62.5 201.5,62.5 202.5,62.5C 203.823,52.3258 203.823,41.9925 202.5,31.5C 201.702,31.9569 201.369,32.6236 201.5,33.5C 196.216,46.3998 191.216,59.3998 186.5,72.5C 182.774,72.8226 179.107,72.4892 175.5,71.5C 170.691,59.0689 165.691,46.7355 160.5,34.5C 160.44,33.9569 160.107,33.6236 159.5,33.5C 158.177,43.3254 158.177,52.992 159.5,62.5C 160.833,62.5 162.167,62.5 163.5,62.5C 163.5,65.8333 163.5,69.1667 163.5,72.5C 156.5,72.5 149.5,72.5 142.5,72.5C 142.5,69.1667 142.5,65.8333 142.5,62.5C 144.167,62.5 145.833,62.5 147.5,62.5C 147.5,50.8333 147.5,39.1667 147.5,27.5C 145.833,27.5 144.167,27.5 142.5,27.5C 142.5,24.1667 142.5,20.8333 142.5,17.5C 150.196,17.1692 157.862,17.5025 165.5,18.5C 170.821,31.1451 176.154,43.8117 181.5,56.5C 187.081,44.1792 191.748,31.5126 195.5,18.5 Z M 162.5,51.5 C 164.293,53.4261 165.293,55.7594 165.5,58.5C 164.5,58.5 163.5,58.5 162.5,58.5C 162.5,56.1667 162.5,53.8333 162.5,51.5 Z M 196.5,58.5 C 196.892,56.8211 197.392,55.1545 198,53.5C 198.167,54.3333 198.333,55.1667 198.5,56C 198.316,57.3756 197.649,58.2089 196.5,58.5 Z"/></g>
<g><path style="opacity:1" fill="#757f8f" d="M 202.5,62.5 C 202.827,52.6522 202.494,42.9856 201.5,33.5C 201.369,32.6236 201.702,31.9569 202.5,31.5C 203.823,41.9925 203.823,52.3258 202.5,62.5 Z"/></g>
<g><path style="opacity:1" fill="#f0ebe4" d="M 59.5,57.5 C 59.1788,59.0481 58.1788,59.7148 56.5,59.5C 49.8074,59.6853 46.9741,63.0186 48,69.5C 48.7921,71.6437 50.2921,72.977 52.5,73.5C 54.9741,74.1047 57.3074,75.1047 59.5,76.5C 51.63,79.1508 46.13,76.4842 43,68.5C 35.6526,76.9097 26.486,79.7431 15.5,77C 10.0861,75.59 5.75275,72.59 2.5,68C 1.55198,67.5172 0.551975,67.3505 -0.5,67.5C -0.5,61.1667 -0.5,54.8333 -0.5,48.5C 1.5273,48.6621 3.5273,48.4955 5.5,48C 2.87922,45.8859 0.879222,43.3859 -0.5,40.5C -0.5,34.8333 -0.5,29.1667 -0.5,23.5C 8.451,12.3833 19.7843,9.21667 33.5,14C 36.7564,15.4589 39.4231,17.6255 41.5,20.5C 43.396,21.4656 45.396,21.7989 47.5,21.5C 47.5,27.8333 47.5,34.1667 47.5,40.5C 45.1432,40.3367 42.8098,40.5034 40.5,41C 45.627,46.0439 47.7937,52.2105 47,59.5C 50.7848,55.3706 54.9514,54.7039 59.5,57.5 Z M 20.5,30.5 C 23.0606,30.4469 25.0606,31.4469 26.5,33.5C 24.5342,34.372 22.5342,34.2053 20.5,33C 19.4019,32.2303 19.4019,31.397 20.5,30.5 Z M 17.5,53.5 C 20.6901,53.8901 23.3567,55.2235 25.5,57.5C 20.9695,59.6514 18.3028,58.3181 17.5,53.5 Z"/></g>
<g><path style="opacity:1" fill="#253857" d="M 15.5,15.5 C 25.2679,14.0602 33.2679,17.0602 39.5,24.5C 40.6888,25.4287 42.0222,25.762 43.5,25.5C 43.5,29.1667 43.5,32.8333 43.5,36.5C 39.1667,36.5 34.8333,36.5 30.5,36.5C 30.6621,34.4727 30.4955,32.4727 30,30.5C 26.8155,27.1556 22.9822,25.9889 18.5,27C 15.0221,29.7065 14.6888,32.7065 17.5,36C 24.578,38.4703 31.578,41.137 38.5,44C 42.3188,49.2048 43.4855,55.0382 42,61.5C 39.9737,68.1901 35.4737,72.0235 28.5,73C 18.3861,75.2994 10.3861,72.2994 4.5,64C 3.20677,63.51 1.87344,63.3433 0.5,63.5C 0.5,59.8333 0.5,56.1667 0.5,52.5C 5.16667,52.5 9.83333,52.5 14.5,52.5C 13.7064,60.775 17.373,63.9417 25.5,62C 29.8721,59.805 30.5388,56.805 27.5,53C 21.9199,50.8063 16.2532,48.8063 10.5,47C 1.18346,38.8284 0.183463,29.8284 7.5,20C 10.3911,18.7258 13.0578,17.2258 15.5,15.5 Z M 20.5,30.5 C 19.4019,31.397 19.4019,32.2303 20.5,33C 22.5342,34.2053 24.5342,34.372 26.5,33.5C 25.0606,31.4469 23.0606,30.4469 20.5,30.5 Z M 17.5,53.5 C 18.3028,58.3181 20.9695,59.6514 25.5,57.5C 23.3567,55.2235 20.6901,53.8901 17.5,53.5 Z"/></g>
<g><path style="opacity:0.91" fill="#f0ebe4" d="M 192.5,17.5 C 193.791,17.2627 194.791,17.596 195.5,18.5C 191.748,31.5126 187.081,44.1792 181.5,56.5C 176.154,43.8117 170.821,31.1451 165.5,18.5C 157.862,17.5025 150.196,17.1692 142.5,17.5C 142.5,20.8333 142.5,24.1667 142.5,27.5C 144.167,27.5 145.833,27.5 147.5,27.5C 147.5,39.1667 147.5,50.8333 147.5,62.5C 145.833,62.5 144.167,62.5 142.5,62.5C 142.5,65.8333 142.5,69.1667 142.5,72.5C 149.5,72.5 156.5,72.5 163.5,72.5C 163.5,69.1667 163.5,65.8333 163.5,62.5C 162.167,62.5 160.833,62.5 159.5,62.5C 159.173,52.985 159.506,43.6517 160.5,34.5C 165.691,46.7355 170.691,59.0689 175.5,71.5C 179.107,72.4892 182.774,72.8226 186.5,72.5C 191.216,59.3998 196.216,46.3998 201.5,33.5C 202.494,42.9856 202.827,52.6522 202.5,62.5C 201.5,62.5 200.5,62.5 199.5,62.5C 199.5,65.8333 199.5,69.1667 199.5,72.5C 207.065,73.1023 214.731,73.9356 222.5,75C 213.99,75.1706 205.657,75.6706 197.5,76.5C 195.711,71.5932 194.878,66.2599 195,60.5C 193.355,66.4572 190.688,71.7906 187,76.5C 182.414,75.6193 177.914,75.286 173.5,75.5C 170.849,70.7159 168.683,65.7159 167,60.5C 166.501,65.8229 166.334,71.1563 166.5,76.5C 157.167,76.5 147.833,76.5 138.5,76.5C 138.633,71.7283 137.3,71.5616 134.5,76C 130.152,78.1615 125.985,77.9948 122,75.5C 112.583,76.4851 103.083,76.8184 93.5,76.5C 93.5,70.8333 93.5,65.1667 93.5,59.5C 91.5744,58.1554 90.5744,58.1554 90.5,59.5C 90.5,65.1667 90.5,70.8333 90.5,76.5C 79.9572,76.4396 69.6239,76.4396 59.5,76.5C 57.3074,75.1047 54.9741,74.1047 52.5,73.5C 59.7447,74.0368 62.578,70.7035 61,63.5C 59.6032,61.9297 58.1032,60.5964 56.5,59.5C 58.1788,59.7148 59.1788,59.0481 59.5,57.5C 62.0024,58.7785 64.5024,58.7785 67,57.5C 71.7346,43.1296 76.5679,28.7963 81.5,14.5C 88.4684,13.503 95.4684,13.1697 102.5,13.5C 107.016,28.5694 111.683,43.5694 116.5,58.5C 120.773,58.5542 124.773,57.5542 128.5,55.5C 132.768,55.8777 135.935,57.8777 138,61.5C 138.483,60.552 138.649,59.552 138.5,58.5C 140.167,58.5 141.833,58.5 143.5,58.5C 143.5,49.5 143.5,40.5 143.5,31.5C 141.833,31.5 140.167,31.5 138.5,31.5C 138.5,25.5 138.5,19.5 138.5,13.5C 148.5,13.5 158.5,13.5 168.5,13.5C 172.266,24.3702 176.6,35.0369 181.5,45.5C 185.177,36.1496 188.844,26.8163 192.5,17.5 Z M 162.5,51.5 C 162.5,53.8333 162.5,56.1667 162.5,58.5C 163.5,58.5 164.5,58.5 165.5,58.5C 165.293,55.7594 164.293,53.4261 162.5,51.5 Z M 196.5,58.5 C 197.649,58.2089 198.316,57.3756 198.5,56C 198.333,55.1667 198.167,54.3333 198,53.5C 197.392,55.1545 196.892,56.8211 196.5,58.5 Z"/></g>
<g><path style="opacity:1" fill="#707b8a" d="M 160.5,34.5 C 159.506,43.6517 159.173,52.985 159.5,62.5C 158.177,52.992 158.177,43.3254 159.5,33.5C 160.107,33.6236 160.44,33.9569 160.5,34.5 Z"/></g>
<g><path style="opacity:1" fill="#253857" d="M 84.5,17.5 C 89.7616,17.1953 94.9283,17.5286 100,18.5C 104.821,33.1445 109.321,47.8112 113.5,62.5C 114.833,62.5 116.167,62.5 117.5,62.5C 117.5,65.8333 117.5,69.1667 117.5,72.5C 110.833,72.5 104.167,72.5 97.5,72.5C 97.5,69.1667 97.5,65.8333 97.5,62.5C 99.288,62.7852 100.955,62.4519 102.5,61.5C 101.054,59.3821 100.387,57.0488 100.5,54.5C 94.5,54.5 88.5,54.5 82.5,54.5C 82.1667,57.1667 81.8333,59.8333 81.5,62.5C 83.1667,62.5 84.8333,62.5 86.5,62.5C 86.5,65.8333 86.5,69.1667 86.5,72.5C 79.5,72.5 72.5,72.5 65.5,72.5C 65.5,69.1667 65.5,65.8333 65.5,62.5C 67.451,62.7733 68.951,62.1066 70,60.5C 74.7439,46.1014 79.5772,31.7681 84.5,17.5 Z"/></g>
<g><path style="opacity:0.996" fill="#e9e4de" d="M 90.5,28.5 C 91.4972,28.4701 92.1639,28.9701 92.5,30C 94.0049,35.1595 95.3382,40.3262 96.5,45.5C 93.1667,45.5 89.8333,45.5 86.5,45.5C 87.8307,39.8394 89.164,34.1727 90.5,28.5 Z"/></g>
<g><path style="opacity:1" fill="#283a59" d="M 56.5,59.5 C 58.1032,60.5964 59.6032,61.9297 61,63.5C 62.578,70.7035 59.7447,74.0368 52.5,73.5C 50.2921,72.977 48.7921,71.6437 48,69.5C 46.9741,63.0186 49.8074,59.6853 56.5,59.5 Z"/></g>
<g><path style="opacity:1" fill="#283a59" d="M 125.5,59.5 C 134.61,59.7516 137.277,63.9183 133.5,72C 124.816,75.6449 120.982,72.8115 122,63.5C 123.376,62.2949 124.542,60.9616 125.5,59.5 Z"/></g>
<g><path style="opacity:0.949" fill="#efeae3" d="M 289.5,21.5 C 289.5,27.8333 289.5,34.1667 289.5,40.5C 287.801,40.3398 286.134,40.5065 284.5,41C 286.3,42.8119 287.967,44.6452 289.5,46.5C 289.5,52.8333 289.5,59.1667 289.5,65.5C 279.666,78.173 267.333,81.0063 252.5,74C 250.125,71.8241 247.792,69.6574 245.5,67.5C 243.031,75.4665 237.697,78.6331 229.5,77C 227.376,75.8783 225.543,74.3783 224,72.5C 223.51,73.7932 223.343,75.1266 223.5,76.5C 214.833,76.5 206.167,76.5 197.5,76.5C 205.657,75.6706 213.99,75.1706 222.5,75C 214.731,73.9356 207.065,73.1023 199.5,72.5C 206.167,72.5 212.833,72.5 219.5,72.5C 219.5,69.1667 219.5,65.8333 219.5,62.5C 217.833,62.5 216.167,62.5 214.5,62.5C 214.5,50.8333 214.5,39.1667 214.5,27.5C 216.167,27.5 217.833,27.5 219.5,27.5C 219.5,24.1667 219.5,20.8333 219.5,17.5C 211.414,17.1995 203.414,17.5328 195.5,18.5C 194.791,17.596 193.791,17.2627 192.5,17.5C 193.234,16.2921 193.567,14.9587 193.5,13.5C 203.5,13.5 213.5,13.5 223.5,13.5C 223.5,19.5 223.5,25.5 223.5,31.5C 221.833,31.5 220.167,31.5 218.5,31.5C 218.5,40.5 218.5,49.5 218.5,58.5C 220.167,58.5 221.833,58.5 223.5,58.5C 223.351,59.552 223.517,60.552 224,61.5C 228.06,55.756 233.227,54.4227 239.5,57.5C 240.484,54.5719 240.817,51.5719 240.5,48.5C 243.518,48.6646 246.518,48.498 249.5,48C 242.455,41.1208 240.622,32.9541 244,23.5C 248.992,15.7507 256.159,11.7507 265.5,11.5C 273.68,11.7589 280.347,14.9255 285.5,21C 286.793,21.49 288.127,21.6567 289.5,21.5 Z M 261.5,53.5 C 264.69,53.8901 267.357,55.2235 269.5,57.5C 264.904,59.6502 262.237,58.3169 261.5,53.5 Z M 264.5,30.5 C 267.061,30.4469 269.061,31.4469 270.5,33.5C 268.534,34.372 266.534,34.2053 264.5,33C 263.402,32.2303 263.402,31.397 264.5,30.5 Z"/></g>
<g><path style="opacity:1" fill="#253858" d="M 259.5,15.5 C 269.236,14.0404 277.236,17.0404 283.5,24.5C 284.689,25.4287 286.022,25.762 287.5,25.5C 287.5,29.1667 287.5,32.8333 287.5,36.5C 282.833,36.5 278.167,36.5 273.5,36.5C 274.184,30.515 271.517,27.1817 265.5,26.5C 260.699,27.1336 258.865,29.8002 260,34.5C 266.54,37.906 273.373,40.7393 280.5,43C 286.22,47.8838 288.053,54.0505 286,61.5C 283.807,68.0169 279.307,71.8502 272.5,73C 262.386,75.2994 254.386,72.2994 248.5,64C 247.207,63.51 245.873,63.3433 244.5,63.5C 244.5,59.8333 244.5,56.1667 244.5,52.5C 249.167,52.5 253.833,52.5 258.5,52.5C 257.706,60.775 261.373,63.9417 269.5,62C 273.872,59.805 274.539,56.805 271.5,53C 265.909,50.8029 260.242,48.8029 254.5,47C 245.095,38.8646 244.095,29.8646 251.5,20C 254.191,18.3952 256.858,16.8952 259.5,15.5 Z M 261.5,53.5 C 262.237,58.3169 264.904,59.6502 269.5,57.5C 267.357,55.2235 264.69,53.8901 261.5,53.5 Z M 264.5,30.5 C 263.402,31.397 263.402,32.2303 264.5,33C 266.534,34.2053 268.534,34.372 270.5,33.5C 269.061,31.4469 267.061,30.4469 264.5,30.5 Z"/></g>
<g><path style="opacity:1" fill="#273958" d="M 231.5,59.5 C 238.193,59.6853 241.026,63.0186 240,69.5C 237.839,73.1241 234.672,74.2907 230.5,73C 224.954,68.0974 225.288,63.5974 231.5,59.5 Z"/></g>
</svg>
